<svg xmlns="http://www.w3.org/2000/svg" xmlns:xlink="http://www.w3.org/1999/xlink" version="1.1" x="0px" y="0px" viewBox="0 0 100 125" enable-background="new 0 0 100 100" xml:space="preserve"><path d="M65.935,14.2L49.948,5l-15.884,9.2l-0.182,64.09l1.449,0.837l0.012-4.16l1.446,0.836l-0.012,4.159l1.449,0.837l0.012-4.16  l1.449,0.837l-0.012,4.159l1.449,0.837l0.012-4.16l1.449,0.837l-0.012,4.159l1.449,0.837l0.012-4.159l1.449,0.836l-0.012,4.16  l1.449,0.836l0.012-4.159l1.449,0.836l-0.012,4.16l1.449,0.836h0.363l1.449-0.836l-0.012-4.162l1.448-0.837l0.012,4.162l1.449-0.836  l-0.012-4.162l1.448-0.837l0.012,4.162l1.449-0.837l-0.012-4.162l1.446-0.835l0.012,4.162l1.449-0.836l-0.012-4.162l1.449-0.838  l0.012,4.163l1.449-0.836l-0.013-4.163l1.449-0.837l0.012,4.163l1.449-0.837L65.935,14.2z M49.951,7.08l12.378,7.124L50,21.321  l-12.338-7.124L49.951,7.08z M36.8,72.473l-1.447-0.836l0.142-49.94l1.447,0.835L36.8,72.473z M39.697,74.146l-1.449-0.837  l0.142-49.94l1.449,0.836L39.697,74.146z M42.595,75.818l-1.449-0.837l0.142-49.94l1.449,0.836L42.595,75.818z M45.493,77.491  l-1.449-0.837l0.142-49.94l1.449,0.836L45.493,77.491z M48.391,79.165l-1.449-0.837l0.142-49.941l1.449,0.836L48.391,79.165z   M51.609,79.161l-0.142-49.94l1.448-0.837l0.142,49.941L51.609,79.161z M54.507,77.488l-0.142-49.94l1.449-0.836l0.142,49.941  L54.507,77.488z M57.404,75.815l-0.142-49.94l1.447-0.835l0.142,49.941L57.404,75.815z M60.3,74.144l-0.142-49.94l1.449-0.836  l0.142,49.941L60.3,74.144z M63.198,72.471l-0.143-49.94l1.449-0.836l0.142,49.941L63.198,72.471z"/><polygon points="73.461,75.171 66.817,71.335 66.829,75.502 71.66,78.291 50.071,90.837 28.34,78.291 33.163,75.488 33.163,71.321   26.53,75.176 21.153,78.301 26.539,81.41 48.27,93.957 50.077,95 51.881,93.952 73.47,81.405 78.847,78.28 "/><text x="0" y="115" fill="#000000" font-size="5px" font-weight="bold" font-family="'Helvetica Neue', Helvetica, Arial-Unicode, Arial, Sans-serif">Created by Sherrinford</text><text x="0" y="120" fill="#000000" font-size="5px" font-weight="bold" font-family="'Helvetica Neue', Helvetica, Arial-Unicode, Arial, Sans-serif">from the Noun Project</text></svg>