<svg xmlns="http://www.w3.org/2000/svg" xmlns:xlink="http://www.w3.org/1999/xlink" version="1.1" x="0px" y="0px" viewBox="0 0 100 125" enable-background="new 0 0 100 100" xml:space="preserve"><g><g><path d="M71.146,16.344L50.375,4.35c-0.232-0.134-0.518-0.134-0.75,0L28.853,16.344c-0.232,0.134-0.375,0.381-0.375,0.649v66.014    c0,0.269,0.143,0.517,0.375,0.649l20.772,11.992C49.741,95.716,49.87,95.75,50,95.75s0.259-0.034,0.375-0.102l20.771-11.992    c0.229-0.135,0.375-0.381,0.375-0.649V16.993C71.521,16.725,71.38,16.477,71.146,16.344z M50,28.12L32.397,17.957L50,7.794    l17.604,10.163L50,28.12z M50,5.866l19.271,11.127l-0.869,0.502L50.2,6.986c-0.125-0.072-0.275-0.072-0.4,0L31.597,17.495    l-0.87-0.502L50,5.866z M29.978,18.292l7,4.042L49.25,29.42v64.282l-7.242-4.181V78.32c0-0.146-0.076-0.274-0.2-0.346l-3.88-2.24    c-0.125-0.071-0.275-0.071-0.4,0c-0.124,0.072-0.2,0.203-0.2,0.347v10.735l-7.35-4.242V18.292z M38.128,87.279V76.773l3.079,1.773    v10.51L38.128,87.279z M50.75,93.701V29.419l12.271-7.086l7-4.042v64.282L50.75,93.701z"/><path d="M68.534,72.234c-0.125-0.071-0.275-0.071-0.4,0l-3.872,2.231c-0.123,0.071-0.199,0.203-0.199,0.351v6.175    c0,0.143,0.076,0.274,0.199,0.346c0.063,0.036,0.131,0.054,0.2,0.054s0.138-0.018,0.2-0.054l3.872-2.235    c0.124-0.066,0.2-0.203,0.2-0.347v-6.174C68.734,72.438,68.658,72.307,68.534,72.234z M67.934,78.523l-3.065,1.771v-5.25    l3.065-1.771V78.523z"/><path d="M68.534,63.79c-0.125-0.072-0.275-0.072-0.4,0l-3.872,2.235c-0.123,0.072-0.199,0.203-0.199,0.347v6.175    c0,0.143,0.076,0.275,0.199,0.346c0.063,0.037,0.131,0.06,0.2,0.06s0.138-0.021,0.2-0.06l3.872-2.23    c0.124-0.071,0.2-0.203,0.2-0.352v-6.175C68.734,63.994,68.658,63.861,68.534,63.79z M67.934,70.081l-3.065,1.774v-5.252    l3.065-1.773V70.081z"/><path d="M62.473,75.734c-0.125-0.071-0.271-0.071-0.396,0l-3.884,2.24c-0.125,0.066-0.196,0.198-0.196,0.346v6.175    c0,0.144,0.071,0.274,0.196,0.346c0.063,0.036,0.135,0.054,0.199,0.054c0.068,0,0.143-0.018,0.199-0.054l3.881-2.239    c0.125-0.066,0.199-0.203,0.199-0.347v-6.174C62.673,75.938,62.598,75.807,62.473,75.734z M61.872,82.023L58.793,83.8v-5.25    l3.079-1.776V82.023z"/><path d="M62.473,67.29c-0.125-0.072-0.271-0.072-0.396,0l-3.884,2.24c-0.125,0.071-0.196,0.202-0.196,0.346v6.175    c0,0.143,0.071,0.275,0.196,0.346c0.063,0.037,0.135,0.06,0.199,0.06c0.068,0,0.143-0.021,0.199-0.06l3.881-2.234    c0.125-0.071,0.199-0.203,0.199-0.352v-6.175C62.673,67.493,62.598,67.361,62.473,67.29z M61.872,73.58l-3.079,1.777v-5.25    l3.079-1.778V73.58z"/><path d="M56.396,79.243c-0.125-0.072-0.275-0.072-0.4,0l-3.883,2.241c-0.124,0.072-0.2,0.203-0.2,0.347v6.174    c0,0.144,0.076,0.274,0.2,0.347c0.063,0.035,0.131,0.053,0.199,0.053c0.064,0,0.139-0.018,0.201-0.053l3.883-2.242    c0.123-0.066,0.199-0.198,0.199-0.346v-6.175C56.598,79.445,56.521,79.314,56.396,79.243z M55.796,85.532l-3.082,1.78v-5.25    l3.082-1.78V85.532z"/><path d="M56.396,70.798c-0.125-0.071-0.275-0.071-0.4,0l-3.883,2.242c-0.124,0.071-0.2,0.203-0.2,0.346v6.175    c0,0.146,0.076,0.275,0.2,0.352c0.063,0.031,0.131,0.054,0.199,0.054c0.064,0,0.139-0.021,0.201-0.054l3.883-2.242    c0.123-0.068,0.199-0.203,0.199-0.352v-6.174C56.598,71.001,56.521,70.87,56.396,70.798z M55.796,77.089l-3.082,1.78v-5.251    l3.082-1.78V77.089z"/><path d="M35.739,66.025l-3.873-2.235c-0.125-0.072-0.275-0.072-0.4,0c-0.124,0.071-0.2,0.203-0.2,0.346v6.175    c0,0.146,0.076,0.275,0.2,0.352l3.873,2.23c0.063,0.037,0.131,0.06,0.2,0.06s0.138-0.021,0.2-0.06    c0.124-0.065,0.2-0.203,0.2-0.346v-6.175C35.939,66.229,35.863,66.098,35.739,66.025z M35.139,71.855l-3.072-1.774V64.83    l3.072,1.773V71.855z"/><path d="M37.527,74.158l3.88,2.24c0.063,0.035,0.131,0.054,0.2,0.054s0.138-0.019,0.2-0.054c0.124-0.071,0.2-0.203,0.2-0.352    v-6.175c0-0.146-0.076-0.271-0.2-0.351l-3.88-2.235c-0.125-0.072-0.275-0.072-0.4,0c-0.124,0.065-0.2,0.203-0.2,0.346v6.181    C37.327,73.954,37.403,74.086,37.527,74.158z M38.128,68.329l3.079,1.778v5.25l-3.079-1.777V68.329z"/><path d="M35.739,74.471l-3.873-2.236c-0.125-0.066-0.275-0.066-0.4,0c-0.124,0.072-0.2,0.203-0.2,0.352v6.174    c0,0.146,0.076,0.275,0.2,0.352l3.873,2.23c0.063,0.036,0.131,0.059,0.2,0.059s0.138-0.021,0.2-0.059    c0.124-0.066,0.2-0.201,0.2-0.346v-6.18C35.939,74.674,35.863,74.542,35.739,74.471z M35.139,80.298l-3.072-1.774v-5.25    l3.072,1.774V80.298z"/><path d="M43.604,86.109l3.883,2.242c0.063,0.03,0.131,0.054,0.2,0.054s0.138-0.021,0.2-0.054c0.124-0.071,0.2-0.203,0.2-0.352    v-6.17c0-0.143-0.076-0.275-0.2-0.346l-3.883-2.242c-0.125-0.072-0.275-0.072-0.4,0c-0.124,0.07-0.2,0.203-0.2,0.346v6.174    C43.403,85.906,43.479,86.038,43.604,86.109z M44.204,80.282l3.082,1.78v5.25l-3.082-1.78V80.282z"/><path d="M43.604,77.666l3.883,2.242c0.063,0.035,0.131,0.054,0.2,0.054s0.138-0.019,0.2-0.054c0.124-0.071,0.2-0.203,0.2-0.346    v-6.181c0-0.143-0.076-0.271-0.2-0.346l-3.883-2.242c-0.125-0.067-0.275-0.067-0.4,0c-0.124,0.071-0.2,0.203-0.2,0.351v6.176    C43.403,77.463,43.479,77.595,43.604,77.666z M44.204,71.837l3.082,1.78v5.251l-3.082-1.78V71.837z"/><path d="M62.473,58.85c-0.125-0.072-0.271-0.072-0.396,0l-3.884,2.239c-0.125,0.071-0.196,0.203-0.196,0.347v0.002v6.172    c0,0.146,0.071,0.274,0.196,0.351c0.063,0.036,0.135,0.056,0.199,0.056c0.068,0,0.143-0.02,0.199-0.056l3.881-2.24    c0.125-0.065,0.199-0.198,0.199-0.346V59.2v-0.005C62.673,59.053,62.598,58.921,62.473,58.85z M61.872,65.139l-3.079,1.778v-5.248    l3.079-1.778V65.139z"/><path d="M68.534,46.905c-0.125-0.072-0.275-0.072-0.4,0l-3.872,2.236c-0.123,0.071-0.199,0.203-0.199,0.346v6.175    c0,0.143,0.076,0.275,0.199,0.346c0.063,0.036,0.131,0.055,0.2,0.055s0.138-0.019,0.2-0.055l3.872-2.236    c0.124-0.065,0.2-0.203,0.2-0.346v-6.175C68.734,47.108,68.658,46.976,68.534,46.905z M67.934,53.195l-3.065,1.771v-5.251    l3.065-1.774V53.195z"/><path d="M68.534,55.35c-0.125-0.072-0.275-0.072-0.4,0l-3.872,2.236c-0.123,0.071-0.199,0.203-0.199,0.346v0.002v6.172    c0,0.146,0.076,0.274,0.199,0.351c0.063,0.03,0.131,0.054,0.2,0.054s0.138-0.021,0.2-0.054l3.872-2.236    c0.124-0.065,0.2-0.198,0.2-0.346V55.7v-0.005C68.734,55.553,68.658,55.421,68.534,55.35z M67.934,61.639l-3.065,1.774v-5.248    l3.065-1.774V61.639z"/><path d="M56.396,53.913c-0.125-0.072-0.275-0.072-0.4,0l-3.883,2.242c-0.124,0.071-0.2,0.202-0.2,0.346v6.175    c0,0.143,0.076,0.275,0.2,0.346c0.063,0.037,0.131,0.06,0.199,0.06c0.064,0,0.139-0.021,0.201-0.06l3.883-2.236    c0.123-0.071,0.199-0.203,0.199-0.352v-6.175C56.598,54.116,56.521,53.984,56.396,53.913z M55.796,60.203l-3.082,1.779v-5.25    l3.082-1.78V60.203z"/><path d="M56.396,62.357c-0.125-0.072-0.275-0.072-0.4,0L52.113,64.6c-0.124,0.07-0.2,0.202-0.2,0.346v0.008v6.171    c0,0.146,0.076,0.271,0.2,0.346c0.063,0.036,0.131,0.06,0.199,0.06c0.064,0,0.139-0.021,0.201-0.06l3.883-2.237    c0.123-0.07,0.199-0.203,0.199-0.351V62.71v-0.003C56.598,62.561,56.521,62.43,56.396,62.357z M55.796,68.646l-3.082,1.775V65.18    l3.082-1.781V68.646z"/><path d="M62.473,50.405c-0.125-0.072-0.271-0.072-0.396,0l-3.884,2.239c-0.125,0.066-0.196,0.203-0.196,0.347v6.175    c0,0.143,0.071,0.275,0.196,0.346c0.063,0.036,0.135,0.055,0.199,0.055c0.068,0,0.143-0.019,0.199-0.055l3.881-2.24    c0.125-0.065,0.199-0.203,0.199-0.346v-6.175C62.673,50.607,62.598,50.476,62.473,50.405z M61.872,56.695l-3.079,1.777v-5.25    l3.079-1.779V56.695z"/><path d="M35.739,49.141l-3.873-2.236c-0.125-0.072-0.275-0.072-0.4,0c-0.124,0.071-0.2,0.203-0.2,0.346v6.175    c0,0.143,0.076,0.275,0.2,0.346l3.873,2.236c0.063,0.036,0.131,0.055,0.2,0.055s0.138-0.019,0.2-0.055    c0.124-0.07,0.2-0.203,0.2-0.346v-6.175C35.939,49.344,35.863,49.212,35.739,49.141z M35.139,54.97l-3.072-1.774v-5.25    l3.072,1.774V54.97z"/><path d="M35.739,57.586l-3.873-2.236c-0.125-0.072-0.275-0.072-0.4,0c-0.124,0.071-0.2,0.203-0.2,0.346V55.7v6.171    c0,0.145,0.076,0.273,0.2,0.346l3.873,2.236c0.063,0.033,0.131,0.054,0.2,0.054s0.138-0.021,0.2-0.054    c0.124-0.071,0.2-0.203,0.2-0.348v-6.172v-0.002C35.939,57.789,35.863,57.657,35.739,57.586z M35.139,63.413l-3.072-1.774v-5.248    l3.072,1.774V63.413z"/><path d="M43.604,60.781l3.883,2.242c0.063,0.035,0.131,0.054,0.2,0.054s0.138-0.019,0.2-0.054c0.124-0.071,0.2-0.203,0.2-0.352    V56.5c0-0.145-0.076-0.273-0.2-0.346l-3.883-2.242c-0.125-0.072-0.275-0.072-0.4,0c-0.124,0.068-0.2,0.203-0.2,0.346v6.178    C43.403,60.578,43.479,60.709,43.604,60.781z M44.204,54.952l3.082,1.78v5.25l-3.082-1.779V54.952z"/><path d="M37.527,57.271l3.88,2.235c0.063,0.036,0.131,0.06,0.2,0.06s0.138-0.021,0.2-0.06c0.124-0.065,0.2-0.198,0.2-0.346V52.99    c0-0.146-0.076-0.275-0.2-0.348l-3.88-2.243c-0.125-0.072-0.275-0.072-0.4,0c-0.124,0.071-0.2,0.206-0.2,0.346v6.175    C37.327,57.068,37.403,57.201,37.527,57.271z M38.128,51.443l3.079,1.779v5.25l-3.079-1.777V51.443z"/><path d="M43.604,69.225l3.883,2.241c0.063,0.036,0.131,0.054,0.2,0.054s0.138-0.018,0.2-0.054c0.124-0.071,0.2-0.202,0.2-0.346    v-6.171v-0.004c0-0.146-0.076-0.274-0.2-0.346l-3.883-2.242c-0.125-0.071-0.275-0.071-0.4,0c-0.124,0.072-0.2,0.203-0.2,0.347    v0.003v6.171C43.403,69.021,43.479,69.152,43.604,69.225z M47.286,70.427l-3.082-1.78v-5.248l3.082,1.781V70.427z"/><path d="M37.527,65.716l3.88,2.24c0.063,0.036,0.131,0.054,0.2,0.054s0.138-0.018,0.2-0.054c0.124-0.071,0.2-0.203,0.2-0.347    v-6.17v-0.004c0-0.146-0.076-0.274-0.2-0.351l-3.88-2.235c-0.125-0.072-0.275-0.072-0.4,0c-0.124,0.066-0.2,0.198-0.2,0.346v0.003    v6.171C37.327,65.514,37.403,65.645,37.527,65.716z M41.207,66.917l-3.079-1.778v-5.248l3.079,1.778V66.917z"/><path d="M68.534,30.02c-0.125-0.072-0.275-0.072-0.4,0l-3.872,2.236c-0.123,0.071-0.199,0.203-0.199,0.346v6.175    c0,0.143,0.076,0.275,0.199,0.346c0.063,0.036,0.131,0.054,0.2,0.054s0.138-0.018,0.2-0.054l3.872-2.236    c0.124-0.071,0.2-0.203,0.2-0.346v-6.175C68.734,30.223,68.658,30.091,68.534,30.02z M67.934,36.31l-3.065,1.774v-5.251    l3.065-1.774V36.31z"/><path d="M68.534,38.465c-0.125-0.072-0.275-0.072-0.4,0l-3.872,2.236c-0.123,0.071-0.199,0.203-0.199,0.346v0.002v6.171    c0,0.143,0.076,0.275,0.199,0.346c0.063,0.036,0.131,0.054,0.2,0.054s0.138-0.018,0.2-0.054l3.872-2.236    c0.124-0.071,0.2-0.203,0.2-0.346v-6.171v-0.002C68.734,38.668,68.658,38.536,68.534,38.465z M67.934,44.754l-3.065,1.774V41.28    l3.065-1.774V44.754z"/><path d="M56.396,37.028c-0.125-0.072-0.275-0.072-0.4,0l-3.883,2.242c-0.124,0.071-0.2,0.203-0.2,0.346v6.175    c0,0.143,0.076,0.275,0.2,0.346c0.063,0.036,0.131,0.054,0.199,0.054c0.064,0,0.139-0.018,0.201-0.054l3.883-2.242    c0.123-0.071,0.199-0.203,0.199-0.346v-6.175C56.598,37.231,56.521,37.099,56.396,37.028z M55.796,43.318l-3.082,1.78v-5.251    l3.082-1.78V43.318z"/><path d="M56.396,28.59c-0.125-0.072-0.275-0.072-0.4,0l-3.883,2.242c-0.124,0.071-0.2,0.203-0.2,0.346v6.171    c0,0.143,0.076,0.275,0.2,0.346c0.063,0.036,0.131,0.054,0.199,0.054c0.064,0,0.139-0.018,0.201-0.054l3.883-2.242    c0.123-0.071,0.199-0.203,0.199-0.346v-6.171C56.598,28.793,56.521,28.661,56.396,28.59z M55.796,34.876l-3.082,1.78v-5.248    l3.082-1.78V34.876z"/><path d="M62.473,25.081c-0.125-0.072-0.271-0.072-0.396,0l-3.884,2.24c-0.125,0.071-0.196,0.203-0.196,0.346v6.171    c0,0.143,0.071,0.275,0.196,0.346c0.063,0.036,0.135,0.054,0.199,0.054c0.068,0,0.143-0.018,0.199-0.054l3.881-2.24    c0.125-0.071,0.199-0.203,0.199-0.346v-6.171C62.673,25.285,62.598,25.153,62.473,25.081z M61.872,31.368l-3.079,1.778v-5.248    l3.079-1.778V31.368z"/><path d="M62.473,41.964c-0.125-0.072-0.271-0.072-0.396,0l-3.884,2.24c-0.125,0.071-0.196,0.203-0.196,0.346v0.003v6.172    c0,0.146,0.071,0.274,0.196,0.346c0.063,0.035,0.135,0.059,0.199,0.059c0.068,0,0.143-0.021,0.199-0.059l3.881-2.235    c0.125-0.071,0.199-0.203,0.199-0.346v-6.171V42.31C62.673,42.167,62.598,42.036,62.473,41.964z M61.872,48.253l-3.079,1.778    v-5.248l3.079-1.778V48.253z"/><path d="M62.473,33.519c-0.125-0.072-0.271-0.072-0.396,0l-3.884,2.24c-0.125,0.071-0.196,0.203-0.196,0.346v6.175    c0,0.143,0.071,0.275,0.196,0.346c0.063,0.036,0.135,0.054,0.199,0.054c0.068,0,0.143-0.018,0.199-0.054l3.881-2.24    c0.125-0.071,0.199-0.203,0.199-0.346v-6.175C62.673,33.723,62.598,33.591,62.473,33.519z M61.872,39.81l-3.079,1.778v-5.251    l3.079-1.778V39.81z"/><path d="M56.396,45.472c-0.125-0.072-0.275-0.072-0.4,0l-3.883,2.242c-0.124,0.071-0.2,0.203-0.2,0.346v0.003v6.171    c0,0.143,0.076,0.271,0.2,0.346c0.063,0.036,0.131,0.054,0.199,0.054c0.064,0,0.139-0.018,0.201-0.054l3.883-2.242    c0.123-0.07,0.199-0.203,0.199-0.346v-6.171v-0.003C56.598,45.675,56.521,45.543,56.396,45.472z M55.796,51.762l-3.082,1.78    v-5.248l3.082-1.78V51.762z"/><path d="M68.534,21.582c-0.125-0.072-0.275-0.072-0.4,0l-3.872,2.236c-0.123,0.071-0.199,0.203-0.199,0.346v6.171    c0,0.143,0.076,0.275,0.199,0.346c0.063,0.036,0.131,0.054,0.2,0.054s0.138-0.018,0.2-0.054l3.872-2.236    c0.124-0.071,0.2-0.203,0.2-0.346v-6.171C68.734,21.785,68.658,21.653,68.534,21.582z M67.934,27.869l-3.065,1.774v-5.248    l3.065-1.774V27.869z"/><path d="M43.604,43.895l3.883,2.242c0.063,0.036,0.131,0.054,0.2,0.054s0.138-0.018,0.2-0.054c0.124-0.071,0.2-0.203,0.2-0.346    v-6.175c0-0.143-0.076-0.275-0.2-0.346l-3.883-2.242c-0.125-0.072-0.275-0.072-0.4,0c-0.124,0.071-0.2,0.203-0.2,0.346v6.175    C43.403,43.692,43.479,43.824,43.604,43.895z M44.204,38.067l3.082,1.78v5.251l-3.082-1.78V38.067z"/><path d="M43.604,35.453l3.883,2.242c0.063,0.036,0.131,0.054,0.2,0.054s0.138-0.018,0.2-0.054c0.124-0.071,0.2-0.203,0.2-0.346    v-6.171c0-0.143-0.076-0.275-0.2-0.346l-3.883-2.242c-0.125-0.072-0.275-0.072-0.4,0c-0.124,0.071-0.2,0.203-0.2,0.346v6.171    C43.403,35.25,43.479,35.382,43.604,35.453z M44.204,29.629l3.082,1.78v5.248l-3.082-1.78V29.629z"/><path d="M35.739,40.701l-3.873-2.236c-0.125-0.072-0.275-0.072-0.4,0c-0.124,0.071-0.2,0.203-0.2,0.346v0.002v6.171    c0,0.143,0.076,0.275,0.2,0.346l3.873,2.236c0.063,0.036,0.131,0.054,0.2,0.054s0.138-0.018,0.2-0.054    c0.124-0.071,0.2-0.203,0.2-0.346v-6.171v-0.002C35.939,40.904,35.863,40.772,35.739,40.701z M35.139,46.528l-3.072-1.774v-5.248    l3.072,1.774V46.528z"/><path d="M35.739,32.256l-3.873-2.236c-0.125-0.072-0.275-0.072-0.4,0c-0.124,0.071-0.2,0.203-0.2,0.346v6.175    c0,0.143,0.076,0.275,0.2,0.346l3.873,2.236c0.063,0.036,0.131,0.054,0.2,0.054s0.138-0.018,0.2-0.054    c0.124-0.071,0.2-0.203,0.2-0.346v-6.175C35.939,32.459,35.863,32.327,35.739,32.256z M35.139,38.084l-3.072-1.774v-5.251    l3.072,1.774V38.084z"/><path d="M37.527,40.387l3.88,2.24c0.063,0.036,0.131,0.054,0.2,0.054s0.138-0.018,0.2-0.054c0.124-0.071,0.2-0.203,0.2-0.346    v-6.175c0-0.143-0.076-0.275-0.2-0.346l-3.88-2.24c-0.125-0.072-0.275-0.072-0.4,0c-0.124,0.071-0.2,0.203-0.2,0.346v6.175    C37.327,40.184,37.403,40.316,37.527,40.387z M38.128,34.558l3.079,1.778v5.251l-3.079-1.778V34.558z"/><path d="M35.739,23.818l-3.873-2.236c-0.125-0.072-0.275-0.072-0.4,0c-0.124,0.071-0.2,0.203-0.2,0.346v6.171    c0,0.143,0.076,0.275,0.2,0.346l3.873,2.236c0.063,0.036,0.131,0.054,0.2,0.054s0.138-0.018,0.2-0.054    c0.124-0.071,0.2-0.203,0.2-0.346v-6.171C35.939,24.021,35.863,23.889,35.739,23.818z M35.139,29.642l-3.072-1.774V22.62    l3.072,1.774V29.642z"/><path d="M37.527,31.945l3.88,2.24c0.063,0.036,0.131,0.054,0.2,0.054s0.138-0.018,0.2-0.054c0.124-0.071,0.2-0.203,0.2-0.346    v-6.171c0-0.143-0.076-0.275-0.2-0.346l-3.88-2.24c-0.125-0.072-0.275-0.072-0.4,0c-0.124,0.071-0.2,0.203-0.2,0.346v6.171    C37.327,31.742,37.403,31.874,37.527,31.945z M38.128,26.12l3.079,1.778v5.248l-3.079-1.778V26.12z"/><path d="M37.527,48.83l3.88,2.24c0.063,0.035,0.131,0.054,0.2,0.054s0.138-0.019,0.2-0.054c0.124-0.071,0.2-0.203,0.2-0.346V44.55    l0,0c0-0.143-0.076-0.275-0.2-0.346l-3.88-2.24c-0.125-0.072-0.275-0.072-0.4,0c-0.124,0.071-0.2,0.203-0.2,0.346v0.002v6.171    C37.327,48.627,37.403,48.759,37.527,48.83z M41.207,50.032l-3.079-1.778v-5.248l3.079,1.778V50.032z"/><path d="M43.604,52.339l3.883,2.242c0.063,0.036,0.131,0.054,0.2,0.054s0.138-0.018,0.2-0.054c0.124-0.071,0.2-0.203,0.2-0.347    v-6.17V48.06c0-0.143-0.076-0.275-0.2-0.346l-3.883-2.242c-0.125-0.072-0.275-0.072-0.4,0c-0.124,0.071-0.2,0.203-0.2,0.346v0.003    v6.171C43.403,52.136,43.479,52.268,43.604,52.339z M47.286,53.541l-3.082-1.78v-5.248l3.082,1.78V53.541z"/></g></g><text x="0" y="115" fill="#000000" font-size="5px" font-weight="bold" font-family="'Helvetica Neue', Helvetica, Arial-Unicode, Arial, Sans-serif">Created by Juan Pablo Bravo</text><text x="0" y="120" fill="#000000" font-size="5px" font-weight="bold" font-family="'Helvetica Neue', Helvetica, Arial-Unicode, Arial, Sans-serif">from the Noun Project</text></svg>