<svg xmlns="http://www.w3.org/2000/svg" xmlns:xlink="http://www.w3.org/1999/xlink" version="1.1" x="0px" y="0px" viewBox="0 0 283.46 396.5375" enable-background="new 0 0 283.46 317.23" xml:space="preserve"><g><path fill="#000000" d="M182.582,39.181l-0.569-13.133l-18.631-3.726L147.304,5.708L84.011,62.202v16.07h1.055   c-2.911,3.235-4.761,5.353-5.109,5.752l-0.558,0.64l16.859,211.51l45.514,14.289l11.346-5.156l19.215,1.648l17.834-264.443   l0.118-1.76L182.582,39.181z M88.046,64.009L147.099,11.3l14.258,14.732l16.761,3.352l0.39,8.965l-14.219-2.901l-16.8-14.175   l-1.188,0.594c-16.027,8.014-44.357,37.854-58.254,53.113V64.009z M168.584,302.584l-16.175-1.388l-10.9,4.955l-41.443-13.013   l-3.768-47.263l1.005,3.817c0.188-0.05,19.141-4.965,46.208-5.729l10.297,2.261l15.84,0.256l0.066-4.036l-15.437-0.247   l-10.384-2.281l-0.248,0.008c-27.479,0.749-46.917,5.749-47.355,5.862l-1.655-20.764l1.29,2.58   c9.06-4.527,42.417-11.547,47.327-12.565l11.385,4.702l17.031,0.259l0.061-4.036l-16.262-0.245l-11.816-4.882l-0.604,0.124   c-1.556,0.316-37.749,7.733-48.509,12.834l-9.364-117.476l1.949,1.497c0.262-0.341,26.299-33.956,58.877-52.401l14.848,11.679   l21.447,4.169l0.77-3.961l-20.489-3.982l-16.189-12.735l-1.171,0.646c-30.076,16.61-54.878,46.154-60.225,52.783L83.558,86.04   c5.095-5.785,43.615-49.121,63.381-59.951l15.535,13.108l23.548,4.805L168.584,302.584z"/><path fill="#000000" d="M146.919,75.845l-1.198,0.661c-33.803,18.667-58.452,47.186-58.696,47.471l3.064,2.626   c0.238-0.277,23.859-27.592,56.39-45.9l12.359,10.14l22.224,4.535l0.806-3.955l-21.242-4.334L146.919,75.845z"/><path fill="#000000" d="M146.844,103.187l-1.123,0.621c-33.692,18.606-56.869,39.579-57.1,39.789l2.718,2.984   c0.224-0.205,22.541-20.398,55.211-38.618l11.912,8.66l20.504,3.457l0.671-3.979l-19.569-3.3L146.844,103.187z"/><path fill="#000000" d="M146.957,129.051l-1.056,0.453c-33.678,14.451-55.284,33.562-55.499,33.754l2.688,3.01   c0.207-0.185,20.915-18.481,53.35-32.601l10.334,7.535l20.398,3.356l0.655-3.981l-19.452-3.201L146.957,129.051z"/><path fill="#000000" d="M144.68,156.283l-0.803,0.241c-20.948,6.311-50.678,24.662-51.934,25.439l2.126,3.43   c0.3-0.186,29.76-18.37,50.174-24.76l12.211,6.595l18.297,2.061l0.452-4.009l-17.52-1.975L144.68,156.283z"/><path fill="#000000" d="M144.753,182l-0.849,0.243c-1.379,0.395-33.997,9.775-50.683,19.887l2.092,3.451   c14.769-8.95,43.566-17.653,48.855-19.213l11.27,6.859l0.498,0.03c1.685,0.104,16.493,1.013,17.778,1.013v-4.035   c-0.857,0-10.468-0.571-17.031-0.975L144.753,182z"/><polygon fill="#000000" points="153.849,270.182 142.665,268.939 98.613,267.667 98.498,271.701 142.301,272.959 153.733,274.23    168.274,273.465 168.061,269.434  "/></g><text x="0" y="332.23" fill="#000000" font-size="5px" font-weight="bold" font-family="'Helvetica Neue', Helvetica, Arial-Unicode, Arial, Sans-serif">Created by la-fabrique-créative</text><text x="0" y="337.23" fill="#000000" font-size="5px" font-weight="bold" font-family="'Helvetica Neue', Helvetica, Arial-Unicode, Arial, Sans-serif">from the Noun Project</text></svg>